<svg width="734" height="668" viewBox="0 0 734 668" fill="none" xmlns="http://www.w3.org/2000/svg">
<path fill-rule="evenodd" clip-rule="evenodd" d="M733.667 67.3333C733.667 37.8653 695.5 27.3837 670.25 20.4493C667.93 19.8123 665.72 19.205 663.657 18.616C632.123 9.60601 587.34 0.666679 533.667 0.666679C476.207 0.666679 428.83 19.8 396.297 38.392C391.32 41.2357 386.087 45.164 381.357 48.7143C375.11 53.405 369.743 57.436 367 57.436C364.257 57.436 358.89 53.405 352.643 48.7143C347.913 45.164 342.68 41.2357 337.703 38.392C305.17 19.8 257.793 0.666679 200.333 0.666679C146.659 0.666679 101.877 9.60601 70.3427 18.616C68.3597 19.1823 66.235 19.7673 64.0054 20.3813C38.8667 27.3037 0.333374 37.914 0.333374 67.3333V500.667C0.333374 512.22 6.31504 522.947 16.1424 529.023C31.7764 538.683 52.408 530.227 70.6914 522.733C77.0697 520.117 83.1624 517.62 88.6574 516.05C115.457 508.393 154.007 500.667 200.333 500.667C242.377 500.667 273.851 514.537 297.447 529.057C303.507 532.787 309.633 537.543 315.92 542.423C331.46 554.493 347.993 567.333 367 567.333C386.06 567.333 402.51 554.54 418.023 542.477C424.317 537.58 430.457 532.807 436.553 529.057C460.15 514.537 491.623 500.667 533.667 500.667C579.993 500.667 618.543 508.393 645.343 516.05C651.09 517.693 657.33 520.327 663.807 523.063C681.81 530.667 701.643 539.043 717.857 529.023C727.683 522.947 733.667 512.22 733.667 500.667V67.3333ZM78.084 85.9163C71.3877 88.0537 67 94.3593 67 101.389V430.637C67 441.767 77.6964 449.777 88.5157 447.17C118.192 440.023 156.259 434 200.333 434C259.103 434 302.98 453.98 333.667 473.07V115.856C326.963 110.531 317.123 103.415 304.63 96.2747C278.831 81.5333 242.874 67.3333 200.333 67.3333C147.503 67.3333 104.663 77.4323 78.084 85.9163ZM533.667 434C474.897 434 431.02 453.98 400.333 473.07V115.856C407.037 110.531 416.877 103.415 429.37 96.2747C455.17 81.5333 491.127 67.3333 533.667 67.3333C586.497 67.3333 629.337 77.4323 655.917 85.9163C662.613 88.0537 667 94.3593 667 101.389V430.637C667 441.767 656.303 449.777 645.483 447.17C615.807 440.023 577.74 434 533.667 434Z" fill="#DEB887"/>
<path d="M36.5783 614.29C29.0537 597.49 36.5743 577.77 53.3757 570.243C68.9837 563.307 85.142 557.477 101.393 552.26C128.356 543.61 165.637 534 200.333 534C239.23 534 272.428 554.963 296.49 570.157C297.725 570.937 298.936 571.7 300.122 572.447C328.157 590.07 347.013 600.667 367 600.667C386.963 600.667 405.707 590.097 433.707 572.46C434.857 571.737 436.027 570.997 437.22 570.24C461.303 555.01 494.523 534 533.667 534C568.55 534 605.823 543.603 632.773 552.267C656.973 560.047 674.927 567.74 679.54 569.767C696.407 577.227 705.143 597.143 697.393 614.35C689.89 631.02 669.863 638.417 653.247 631.03C639.943 625.163 626.203 620.183 612.367 615.733C587.473 607.73 558.08 600.667 533.667 600.667C515.03 600.667 497.123 611.287 467.23 630.137C442.45 645.763 408.243 667.333 367 667.333C325.73 667.333 291.412 645.737 266.562 630.097C236.608 611.243 218.742 600.667 200.333 600.667C176.126 600.667 146.741 607.723 121.762 615.74C107.846 620.203 93.9913 625.17 80.6167 631.093C63.8167 638.61 44.1017 631.09 36.5783 614.29Z" fill="#DEB887"/>
</svg>
